<svg width="211" height="41" viewBox="0 0 211 41" fill="none" xmlns="http://www.w3.org/2000/svg">
<g id="&#208;&#152;&#208;&#186;&#208;&#190;&#208;&#189;&#208;&#186;&#208;&#184;">
<g id="icon / Skype">
<g id="skype">
<circle id="Ellipse" cx="20" cy="21" r="20" fill="#E5E5E5"/>
<path id="Vector" d="M30.3182 22.0682C30.3864 21.5227 30.4545 21.0455 30.4545 20.5C30.4545 15.0455 26.0227 10.5455 20.5 10.5455C19.9545 10.5455 19.4773 10.6136 18.9318 10.6818C18.0455 10.2045 17.0909 10 16.1364 10C12.7273 10 10 12.7273 10 16.1364C10 17.0909 10.2045 18.0455 10.6818 18.9318C10.6136 19.4773 10.5455 19.9545 10.5455 20.5C10.5455 25.9545 14.9773 30.4545 20.5 30.4545C21.0455 30.4545 21.5227 30.3864 22.0682 30.3182C22.9545 30.7273 23.9091 31 24.8636 31C28.2727 31 31 28.2727 31 24.8636C31 23.9091 30.7273 22.9545 30.3182 22.0682ZM24.6591 24.1136C24.4545 24.5227 24.1818 24.8636 23.7727 25.1364C23.3636 25.4091 22.9545 25.6136 22.4091 25.75C21.8636 25.8864 21.25 25.9545 20.5682 25.9545C19.1364 25.9545 17.9773 25.6136 17.1591 25C16.6818 24.5909 16.2727 24.1136 16.0682 23.5C15.7955 22.9545 16.2727 22.2727 16.9545 22.2727H17.1591C17.5682 22.2727 17.9773 22.5455 18.1136 22.8864C18.25 23.2273 18.4545 23.5 18.7273 23.7045C19.1364 24.0455 19.75 24.1818 20.5 24.1818C21.1818 24.1818 21.7273 24.0455 22.1364 23.8409C22.5455 23.6364 22.75 23.2273 22.75 22.8182C22.75 22.6136 22.6818 22.4773 22.6136 22.3409C22.5455 22.2045 22.3409 22.0682 22.2045 22C22 21.8636 21.7955 21.7955 21.4545 21.7273C21.1818 21.6591 20.8409 21.5227 20.4318 21.4545L20.0227 21.3182C19.5455 21.1818 19 21.0455 18.5909 20.9091C18.1136 20.7727 17.7045 20.5682 17.3636 20.3636C17.0227 20.1591 16.75 19.8864 16.5455 19.4773C16.3409 19.1364 16.2727 18.6591 16.2727 18.1136C16.2727 17.5682 16.4091 17.0909 16.6136 16.6818C16.8182 16.2727 17.1591 15.9318 17.5 15.7273C17.9091 15.4545 18.3182 15.25 18.8636 15.1818C19.3409 15.0455 19.8864 14.9773 20.5 14.9773C21.1818 14.9773 21.7273 15.0455 22.2727 15.1818C22.8182 15.3182 23.2273 15.5227 23.6364 15.8636C24.0455 16.1364 24.3182 16.4773 24.5227 16.9545C24.8636 17.5682 24.3864 18.3864 23.6364 18.3864H23.4318C23.0227 18.3864 22.6818 18.1818 22.4773 17.8409C22.3409 17.6364 22.2045 17.4318 22 17.2273C21.6591 16.9545 21.1136 16.8182 20.5 16.8182C19.8864 16.8182 19.4091 16.9545 19.0682 17.1591C18.7273 17.3636 18.5909 17.7045 18.5909 18.0455C18.5909 18.25 18.6591 18.3864 18.7273 18.5227C18.7955 18.6591 18.9318 18.7955 19.1364 18.8636C19.3409 18.9318 19.5455 19.0682 19.8182 19.1364C20.0909 19.2045 20.4318 19.2727 20.8409 19.4091C21.25 19.4773 21.5909 19.6136 22 19.6818C22.3409 19.75 22.6818 19.8864 23.0227 19.9545C23.3636 20.0909 23.6364 20.2273 23.9091 20.3636C24.1818 20.5 24.3864 20.7045 24.5909 20.9091C24.7955 21.1136 24.9318 21.3864 25 21.6591C25.1364 21.9318 25.1364 22.3409 25.1364 22.75C25 23.2273 24.8636 23.7045 24.6591 24.1136Z" fill="black"/>
</g>
<circle id="Ellipse 1" cx="20" cy="21" r="19.5" stroke="#488AEA"/>
</g>
<g id="icon / VK">
<g id="vk">
<circle id="Ellipse_2" cx="77" cy="21" r="20" fill="#E5E5E5"/>
<path id="Vector_2" d="M86.8062 26.1153C86.8062 26.0323 86.7231 26.0323 86.7231 25.9493C86.3911 25.2851 85.6438 24.4549 84.6476 23.5416C84.1494 23.1265 83.9004 22.7944 83.7343 22.6284C83.4852 22.2963 83.4853 22.0472 83.5683 21.7151C83.6513 21.466 83.9834 21.0509 84.5645 20.3037C84.8966 19.8886 85.0627 19.6395 85.3117 19.3905C86.5571 17.73 87.1382 16.6507 86.9722 16.1526L86.8892 16.0695C86.8062 15.9865 86.7231 15.9035 86.5571 15.9035C86.391 15.8205 86.142 15.8205 85.8929 15.9035H82.7381C82.655 15.9035 82.655 15.9035 82.489 15.9035C82.4059 15.9035 82.3229 15.9035 82.3229 15.9035H82.2399H82.1569L82.0739 15.9865C81.9908 16.0695 81.9908 16.0695 81.9908 16.1526C81.6587 17.0658 81.2436 17.813 80.8285 18.6433C80.5794 19.0584 80.3304 19.4735 80.0813 19.8056C79.8322 20.1377 79.6662 20.3867 79.5001 20.5528C79.3341 20.7188 79.168 20.8018 79.085 20.9679C79.002 21.0509 78.836 21.1339 78.836 21.0509C78.7529 21.0509 78.6699 21.0509 78.6699 20.9679C78.5869 20.8849 78.5039 20.8018 78.4208 20.7188C78.3378 20.6358 78.3378 20.4698 78.2548 20.3037C78.2548 20.1377 78.2548 19.9716 78.2548 19.8886C78.2548 19.8056 78.2548 19.5565 78.2548 19.3905C78.2548 19.1414 78.2548 18.9753 78.2548 18.8923C78.2548 18.6433 78.2548 18.3112 78.2548 17.9791C78.2548 17.647 78.2548 17.3979 78.2548 17.2319C78.2548 17.0658 78.2548 16.8168 78.2548 16.6507C78.2548 16.4016 78.2548 16.2356 78.2548 16.1526C78.2548 16.0695 78.1718 15.9035 78.1718 15.8205C78.0888 15.7375 78.0057 15.6544 77.9227 15.5714C77.8397 15.4884 77.6736 15.4884 77.5906 15.4054C77.1755 15.3223 76.6774 15.2393 76.0962 15.2393C74.7679 15.2393 73.8546 15.3223 73.5225 15.4884C73.3565 15.5714 73.1904 15.6544 73.1074 15.8205C72.9413 15.9865 72.9413 16.0695 73.0244 16.0695C73.4395 16.1526 73.7716 16.3186 73.9376 16.5677L74.0206 16.7337C74.1037 16.8168 74.1037 16.9828 74.1867 17.2319C74.2697 17.4809 74.2697 17.73 74.2697 18.0621C74.2697 18.5602 74.2697 19.0584 74.2697 19.3905C74.2697 19.8056 74.1867 20.0546 74.1867 20.3037C74.1867 20.5528 74.1037 20.7188 74.0206 20.8019C73.9376 20.9679 73.9376 21.0509 73.8546 21.0509C73.8546 21.0509 73.8546 21.1339 73.7716 21.1339C73.6885 21.1339 73.6055 21.217 73.4395 21.217C73.3565 21.217 73.1904 21.1339 73.1074 21.0509C72.9413 20.9679 72.7753 20.8019 72.6923 20.6358C72.5262 20.4698 72.3602 20.2207 72.1941 19.8886C72.0281 19.5565 71.779 19.2244 71.613 18.7263L71.4469 18.3942C71.3639 18.2281 71.1979 17.896 71.0318 17.4809C70.8658 17.0658 70.6997 16.7337 70.5337 16.3186C70.4506 16.1526 70.3676 16.0695 70.2846 15.9865H70.2016C70.2016 15.9865 70.1186 15.9035 70.0355 15.9035C69.9525 15.9035 69.8695 15.8205 69.7865 15.8205H66.7976C66.4655 15.8205 66.2995 15.9035 66.2165 15.9865L66.1335 16.0695C66.1335 16.0695 66.1335 16.1526 66.1335 16.2356C66.1335 16.3186 66.1335 16.4016 66.2165 16.5677C66.6316 17.564 67.1297 18.5602 67.6279 19.5565C68.126 20.4698 68.6241 21.3 68.9562 21.8812C69.3714 22.4623 69.7034 23.0435 70.1186 23.5416C70.5337 24.0397 70.7827 24.3718 70.8658 24.5379C71.0318 24.7039 71.1148 24.7869 71.1978 24.87L71.4469 25.119C71.613 25.2851 71.862 25.5342 72.1941 25.7832C72.5262 26.0323 72.9413 26.2814 73.3564 26.5304C73.7716 26.7795 74.2697 26.9456 74.7678 27.1116C75.349 27.2776 75.8471 27.3607 76.3453 27.2776H77.5906C77.8397 27.2776 78.0057 27.1946 78.1718 27.0286L78.2548 26.9455C78.2548 26.8625 78.3378 26.8625 78.3378 26.7795C78.3378 26.6965 78.3378 26.6135 78.3378 26.4474C78.3378 26.1153 78.3378 25.8663 78.4208 25.6172C78.5039 25.3681 78.5039 25.2021 78.5869 25.036C78.6699 24.87 78.7529 24.787 78.836 24.7039C78.919 24.6209 79.002 24.5379 79.002 24.5379H79.085C79.2511 24.4549 79.5001 24.5379 79.6662 24.7039C79.9153 24.87 80.1643 25.119 80.3304 25.3681C80.4964 25.6172 80.7455 25.8663 81.0776 26.1983C81.4097 26.5304 81.6587 26.7795 81.8248 26.8625L82.0739 27.0286C82.2399 27.1116 82.406 27.1946 82.655 27.2776C82.9041 27.3607 83.0701 27.3607 83.2362 27.3607L86.059 27.2776C86.308 27.2776 86.5571 27.1946 86.7231 27.1116C86.8892 27.0286 86.9722 26.9455 86.9722 26.7795C86.9722 26.6965 86.9722 26.5304 86.9722 26.4474C86.8062 26.2814 86.8062 26.1983 86.8062 26.1153Z" fill="black"/>
</g>
<circle id="Ellipse 2" cx="77" cy="21" r="19.5" stroke="#488AEA"/>
</g>
<g id="icon / Telegram">
<g id="telegramm">
<circle id="Ellipse_3" cx="134" cy="20" r="20" fill="#E5E5E5"/>
<path id="Vector_3" d="M123.351 20.3741L127.949 22.0886L129.741 27.8557C129.819 28.2454 130.287 28.3233 130.599 28.0895L133.17 25.9853C133.404 25.7515 133.794 25.7515 134.106 25.9853L138.704 29.3364C139.015 29.5702 139.483 29.4144 139.561 29.0247L142.99 12.6587C143.068 12.269 142.678 11.8793 142.289 12.0352L123.351 19.3609C122.883 19.5168 122.883 20.2182 123.351 20.3741ZM129.507 21.2313L138.548 15.6981C138.704 15.6201 138.859 15.8539 138.704 15.9319L131.3 22.868C131.066 23.1018 130.832 23.4135 130.832 23.8032L130.599 25.6736C130.599 25.9074 130.209 25.9853 130.131 25.6736L129.196 22.2445C128.962 21.8548 129.118 21.3872 129.507 21.2313Z" fill="black"/>
</g>
<circle id="Ellipse 3" cx="134" cy="20" r="19.5" stroke="#488AEA"/>
</g>
<g id="icon / instagram">
<g id="instagramm">
<circle id="Ellipse_4" cx="191" cy="21" r="20" fill="url(#paint0_linear_23_24)"/>
<path id="Vector_4" d="M197.581 13H185.419C184.046 13 183 14.0462 183 15.4192V27.5808C183 28.9538 184.046 30 185.419 30H197.581C198.954 30 200 28.9538 200 27.5808V15.4192C200 14.0462 198.954 13 197.581 13ZM191.5 26.6C194.312 26.6 196.6 24.3769 196.6 21.6962C196.6 21.2385 196.535 20.7154 196.404 20.3231H197.842V27.2538C197.842 27.5808 197.581 27.9077 197.188 27.9077H185.812C185.485 27.9077 185.158 27.6462 185.158 27.2538V20.2577H186.662C186.531 20.7154 186.465 21.1731 186.465 21.6308C186.4 24.3769 188.688 26.6 191.5 26.6ZM191.5 24.6385C189.669 24.6385 188.231 23.2 188.231 21.4346C188.231 19.6692 189.669 18.2308 191.5 18.2308C193.331 18.2308 194.769 19.6692 194.769 21.4346C194.769 23.2654 193.331 24.6385 191.5 24.6385ZM197.777 17.6423C197.777 18.0346 197.45 18.3615 197.058 18.3615H195.227C194.835 18.3615 194.508 18.0346 194.508 17.6423V15.8769C194.508 15.4846 194.835 15.1577 195.227 15.1577H197.058C197.45 15.1577 197.777 15.4846 197.777 15.8769V17.6423Z" fill="black"/>
</g>
<circle id="Ellipse 4" cx="191" cy="21" r="19.5" stroke="#488AEA"/>
</g>
</g>
<defs>
<linearGradient id="paint0_linear_23_24" x1="179.5" y1="36.5" x2="206" y2="9" gradientUnits="userSpaceOnUse">
<stop stop-color="#E5E5E5"/>
</linearGradient>
</defs>
</svg>
